<svg xmlns="http://www.w3.org/2000/svg" xmlns:xlink="http://www.w3.org/1999/xlink" width="500" zoomAndPan="magnify" viewBox="0 0 375 374.999991" height="500" preserveAspectRatio="xMidYMid meet" version="1.0"><defs><clipPath id="afaa45cd87"><path d="M 187.5 0 C 83.945312 0 0 83.945312 0 187.5 C 0 291.054688 83.945312 375 187.5 375 C 291.054688 375 375 291.054688 375 187.5 C 375 83.945312 291.054688 0 187.5 0 Z M 187.5 0 " clip-rule="nonzero"/></clipPath></defs><path fill="#ffffff" d="M 201.277344 122.917969 C 203.640625 120.214844 206.453125 117.910156 209.492188 115.996094 C 212.640625 114.085938 215.566406 118.808594 212.472656 120.777344 C 209.039062 122.242188 206.398438 127.023438 203.359375 127.585938 C 200.996094 127.640625 199.648438 124.605469 201.277344 122.917969 Z M 208.308594 179 C 211.347656 181.027344 214.496094 176.414062 211.460938 174.332031 C 199.535156 166.457031 194.359375 150.761719 199.140625 137.375 C 199.648438 135.910156 198.859375 134.28125 197.394531 133.773438 C 195.933594 133.265625 194.300781 134.054688 193.796875 135.515625 C 188.171875 151.269531 194.300781 169.773438 208.253906 179 Z M 234.1875 94.675781 C 301.519531 102.722656 297.019531 199.140625 229.347656 201.277344 C 200.546875 201.894531 175.34375 176.636719 175.90625 147.835938 C 175.234375 117.402344 203.808594 91.132812 234.1875 94.675781 Z M 229.347656 195.652344 C 291.394531 193.402344 293.363281 104.632812 231.261719 100.132812 C 214.214844 99.570312 197.847656 108.121094 188.902344 122.355469 C 168.707031 153.460938 192.222656 196.269531 229.347656 195.652344 Z M 315.300781 141.535156 C 315.300781 141.535156 315.300781 261.691406 315.300781 261.691406 C 315.640625 274.292969 302.703125 284.585938 290.496094 281.324219 C 260.738281 275.53125 234.1875 265.6875 209.210938 272.773438 C 210.390625 298.707031 171.519531 300.5625 170.453125 274.519531 C 142.71875 263.15625 108.96875 278.003906 79.773438 281.886719 C 69.027344 282.113281 59.40625 272.550781 59.632812 261.691406 L 59.632812 141.535156 C 59.632812 133.210938 64.753906 125.839844 72.347656 122.804688 L 72.347656 116.726562 C 72.347656 110.765625 76.902344 105.757812 82.921875 105.085938 C 91.304688 104.128906 97.433594 102.269531 103.960938 100.359375 C 113.804688 97.433594 123.816406 94.285156 141.988281 94.453125 C 159.59375 94.453125 171.914062 99.007812 179.675781 103.226562 C 204.539062 74.3125 252.804688 73.921875 278.175781 102.382812 C 282 103.398438 286.558594 104.410156 291.957031 105.027344 C 298.03125 105.703125 302.53125 110.710938 302.53125 116.671875 L 302.53125 122.746094 C 310.070312 125.785156 315.246094 133.152344 315.246094 141.480469 Z M 302.589844 128.992188 L 302.589844 234.691406 C 304.613281 237.558594 308.945312 242.453125 309.675781 245.996094 L 309.675781 141.535156 C 309.675781 136.304688 306.921875 131.578125 302.589844 128.992188 Z M 301.070312 256.515625 C 304.839844 253.761719 305.628906 248.136719 302.8125 244.480469 C 302.8125 244.480469 297.527344 237.390625 297.527344 237.390625 C 297.527344 237.390625 282.449219 217.082031 282.394531 217.082031 C 275.363281 208.25 262.03125 218.097656 268.554688 227.378906 C 273.335938 233.789062 284.082031 248.191406 288.917969 254.773438 C 290.328125 256.628906 292.296875 257.8125 294.601562 258.148438 C 296.851562 258.484375 299.15625 257.921875 301.015625 256.515625 Z M 267.710938 235.535156 C 263.4375 230.414062 259.667969 224.679688 262.144531 217.816406 L 255.730469 209.152344 C 235.03125 218.320312 209.941406 215.675781 191.433594 202.851562 L 191.433594 255.222656 C 192.050781 255.335938 192.671875 255.449219 193.289062 255.5625 C 208.816406 238.683594 233.34375 231.765625 256.6875 234.070312 C 260.738281 234.464844 264 234.859375 267.710938 235.535156 Z M 260.90625 206.734375 L 265.125 212.472656 C 266.25 211.234375 267.65625 210.277344 269.117188 209.488281 L 265.179688 204.203125 C 264.730469 204.484375 264.28125 204.707031 263.832031 204.988281 C 262.875 205.609375 261.863281 206.113281 260.90625 206.734375 Z M 284.027344 109.527344 C 304.5 137.765625 297.921875 180.238281 269.792969 200.882812 L 275.136719 208.027344 C 279.808594 207.859375 284.195312 209.996094 287.007812 213.765625 L 297.019531 227.265625 L 297.019531 116.839844 C 297.019531 113.746094 294.601562 111.160156 291.394531 110.765625 C 288.75 110.484375 286.277344 110.089844 284.027344 109.640625 Z M 171.296875 167.242188 C 194.640625 232.382812 288.976562 217.140625 290.4375 147.835938 C 291.113281 114.984375 262.144531 86.070312 229.292969 86.6875 C 188.285156 85.902344 157.683594 128.652344 171.296875 167.242188 Z M 78.027344 124.773438 L 78.027344 239.472656 C 78.027344 240.542969 78.535156 241.496094 79.378906 242.117188 C 80.222656 242.679688 81.289062 242.847656 82.246094 242.453125 C 85.902344 241.046875 89.617188 239.808594 93.273438 238.851562 C 108.910156 234.296875 126.292969 232.160156 142.382812 234.914062 C 158.019531 237.445312 171.914062 244.761719 182.601562 256.347656 C 183.613281 256.066406 184.570312 255.730469 185.582031 255.449219 L 184.738281 197.453125 C 176.863281 190.363281 170.957031 181.644531 167.1875 172.023438 C 166.175781 172.925781 164.714844 173.039062 163.644531 172.195312 C 141.988281 155.710938 103.117188 172.363281 102.722656 172.53125 C 99.347656 173.992188 97.097656 168.875 100.472656 167.355469 C 102.160156 166.625 140.917969 150.085938 165.332031 166.570312 C 162.574219 157.457031 161.789062 147.722656 163.25 138.273438 C 141.539062 122.242188 103.117188 138.722656 102.722656 138.890625 C 101.316406 139.511719 99.628906 138.890625 99.011719 137.429688 C 98.390625 136.023438 99.011719 134.335938 100.472656 133.71875 C 102.105469 132.984375 139.90625 116.839844 164.375 132.308594 C 166.511719 123.308594 170.5625 114.871094 176.019531 107.445312 C 168.820312 103.734375 157.683594 99.964844 142.042969 99.910156 C 114.140625 99.683594 107.390625 107.445312 83.652344 110.484375 C 80.445312 110.878906 78.027344 113.464844 78.027344 116.558594 Z M 171.183594 268.722656 C 172.363281 265.011719 174.558594 261.804688 177.59375 259.328125 C 161.449219 242.058594 137.65625 237.164062 114.535156 240.203125 C 104.015625 241.554688 94.117188 244.085938 84.273438 247.796875 C 78.703125 250.046875 72.234375 245.492188 72.402344 239.527344 L 72.402344 129.105469 C 68.128906 131.691406 65.316406 136.417969 65.316406 141.648438 C 65.316406 141.648438 65.316406 261.804688 65.316406 261.804688 C 65.089844 270.917969 74.371094 278.285156 83.203125 275.980469 C 103.792969 271.144531 131.46875 265.234375 146.261719 264.671875 C 154.53125 264.390625 162.914062 265.742188 171.238281 268.835938 Z M 202.964844 273 C 200.773438 255.335938 175.0625 257.699219 176.078125 275.417969 C 178.382812 293.25 203.976562 290.664062 202.964844 273 Z M 309.675781 253.199219 C 306.976562 264.503906 291.226562 267.65625 284.476562 258.148438 L 272.71875 242.339844 C 247.742188 235.984375 218.152344 239.191406 200.320312 258.597656 C 203.527344 260.734375 205.945312 263.941406 207.351562 267.542969 C 234.128906 259.835938 260.570312 269.847656 291.789062 275.925781 C 300.621094 278.230469 309.902344 270.863281 309.675781 261.75 Z M 102.890625 206.171875 C 103.285156 205.945312 143.5625 185.808594 168.480469 209.660156 C 171.070312 212.246094 175.0625 208.082031 172.363281 205.609375 C 144.519531 179 102.105469 200.265625 100.304688 201.164062 C 97.042969 202.851562 99.574219 207.800781 102.890625 206.171875 Z M 102.890625 206.171875 " fill-opacity="1" fill-rule="nonzero"/><g clip-path="url(#afaa45cd87)"><path stroke-linecap="butt" transform="matrix(0.75, 0, 0, 0.75, 0.0000045, 0)" fill="none" stroke-linejoin="miter" d="M 249.999994 0 C 111.927078 0 -0.000006 111.927084 -0.000006 250 C -0.000006 388.072917 111.927078 500.000001 249.999994 500.000001 C 388.072911 500.000001 499.999995 388.072917 499.999995 250 C 499.999995 111.927084 388.072911 0 249.999994 0 Z M 249.999994 0 " stroke="#ffffff" stroke-width="24" stroke-opacity="1" stroke-miterlimit="4"/></g></svg>