<svg xmlns="http://www.w3.org/2000/svg" xmlns:xlink="http://www.w3.org/1999/xlink" width="500" zoomAndPan="magnify" viewBox="0 0 375 374.999991" height="500" preserveAspectRatio="xMidYMid meet" version="1.0"><defs><clipPath id="994b2fbe9d"><path d="M 187.5 0 C 83.945312 0 0 83.945312 0 187.5 C 0 291.054688 83.945312 375 187.5 375 C 291.054688 375 375 291.054688 375 187.5 C 375 83.945312 291.054688 0 187.5 0 Z M 187.5 0 " clip-rule="nonzero"/></clipPath><clipPath id="5f492e0f2a"><path d="M 54 81 L 330 81 L 330 327.359375 L 54 327.359375 Z M 54 81 " clip-rule="nonzero"/></clipPath></defs><g clip-path="url(#994b2fbe9d)"><path stroke-linecap="butt" transform="matrix(0.75, 0, 0, 0.75, 0.0000045, -0.000000000000021316)" fill="none" stroke-linejoin="miter" d="M 249.999994 0.000000000000028422 C 111.927078 0.000000000000028422 -0.000006 111.927084 -0.000006 250 C -0.000006 388.072917 111.927078 500.000001 249.999994 500.000001 C 388.072911 500.000001 499.999995 388.072917 499.999995 250 C 499.999995 111.927084 388.072911 0.000000000000028422 249.999994 0.000000000000028422 Z M 249.999994 0.000000000000028422 " stroke="#ffffff" stroke-width="24" stroke-opacity="1" stroke-miterlimit="4"/></g><g clip-path="url(#5f492e0f2a)"><path fill="#ffffff" d="M 307.445312 104.597656 C 293.296875 90.449219 274.304688 82.152344 253.972656 81.246094 C 234.363281 80.355469 216.417969 86.617188 204.679688 98.359375 L 192.507812 110.527344 L 186.582031 104.597656 C 185.6875 103.707031 184.773438 102.835938 183.839844 101.988281 C 182.90625 101.140625 181.949219 100.320312 180.976562 99.519531 C 180 98.71875 179.007812 97.941406 177.992188 97.191406 C 176.980469 96.4375 175.949219 95.714844 174.898438 95.011719 C 173.851562 94.3125 172.785156 93.636719 171.703125 92.988281 C 170.621094 92.339844 169.523438 91.71875 168.410156 91.125 C 167.300781 90.527344 166.171875 89.960938 165.03125 89.421875 C 163.890625 88.882812 162.738281 88.371094 161.574219 87.890625 C 160.410156 87.40625 159.230469 86.953125 158.042969 86.527344 C 156.855469 86.101562 155.660156 85.707031 154.453125 85.339844 C 153.246094 84.976562 152.027344 84.640625 150.804688 84.332031 C 149.582031 84.027344 148.351562 83.75 147.113281 83.503906 C 145.875 83.257812 144.632812 83.042969 143.386719 82.855469 C 142.136719 82.671875 140.886719 82.515625 139.632812 82.394531 C 138.375 82.269531 137.117188 82.175781 135.859375 82.113281 C 134.597656 82.054688 133.335938 82.023438 132.078125 82.023438 C 130.816406 82.023438 129.554688 82.054688 128.292969 82.113281 C 127.035156 82.175781 125.777344 82.269531 124.519531 82.394531 C 123.265625 82.515625 122.015625 82.671875 120.765625 82.855469 C 119.519531 83.042969 118.277344 83.257812 117.039062 83.503906 C 115.800781 83.75 114.570312 84.027344 113.347656 84.332031 C 112.125 84.640625 110.910156 84.976562 109.699219 85.339844 C 108.492188 85.707031 107.296875 86.101562 106.109375 86.527344 C 104.921875 86.953125 103.746094 87.40625 102.578125 87.890625 C 101.414062 88.371094 100.261719 88.882812 99.121094 89.421875 C 97.980469 89.960938 96.851562 90.53125 95.742188 91.125 C 94.628906 91.71875 93.53125 92.339844 92.449219 92.988281 C 91.367188 93.636719 90.300781 94.3125 89.253906 95.011719 C 88.203125 95.714844 87.171875 96.441406 86.160156 97.191406 C 85.144531 97.941406 84.152344 98.71875 83.175781 99.519531 C 82.203125 100.320312 81.246094 101.144531 80.3125 101.988281 C 79.378906 102.835938 78.464844 103.707031 77.574219 104.597656 C 76.679688 105.492188 75.8125 106.40625 74.964844 107.339844 C 74.117188 108.273438 73.292969 109.230469 72.492188 110.203125 C 71.691406 111.179688 70.917969 112.171875 70.164062 113.1875 C 69.414062 114.199219 68.6875 115.230469 67.988281 116.28125 C 67.285156 117.328125 66.609375 118.394531 65.960938 119.476562 C 65.3125 120.558594 64.691406 121.65625 64.097656 122.769531 C 63.503906 123.878906 62.9375 125.007812 62.398438 126.148438 C 61.855469 127.289062 61.347656 128.441406 60.863281 129.605469 C 60.382812 130.769531 59.925781 131.949219 59.503906 133.136719 C 59.078125 134.324219 58.679688 135.519531 58.316406 136.726562 C 57.949219 137.933594 57.613281 139.152344 57.304688 140.375 C 57 141.597656 56.722656 142.828125 56.476562 144.066406 C 56.230469 145.304688 56.015625 146.546875 55.832031 147.792969 C 55.644531 149.039062 55.492188 150.292969 55.367188 151.546875 C 55.242188 152.804688 55.152344 154.0625 55.089844 155.320312 C 55.027344 156.582031 54.996094 157.839844 54.996094 159.101562 C 54.996094 160.363281 55.027344 161.625 55.089844 162.886719 C 55.152344 164.144531 55.242188 165.402344 55.367188 166.660156 C 55.492188 167.914062 55.644531 169.164062 55.832031 170.414062 C 56.015625 171.660156 56.230469 172.902344 56.476562 174.140625 C 56.722656 175.378906 57 176.609375 57.304688 177.832031 C 57.613281 179.054688 57.949219 180.269531 58.316406 181.476562 C 58.683594 182.683594 59.078125 183.882812 59.503906 185.070312 C 59.925781 186.257812 60.382812 187.433594 60.863281 188.601562 C 61.347656 189.765625 61.859375 190.917969 62.398438 192.058594 C 62.9375 193.199219 63.503906 194.324219 64.097656 195.4375 C 64.691406 196.550781 65.3125 197.648438 65.964844 198.730469 C 66.613281 199.8125 67.285156 200.878906 67.988281 201.925781 C 68.6875 202.976562 69.414062 204.007812 70.164062 205.019531 C 70.917969 206.03125 71.691406 207.027344 72.492188 208.003906 C 73.292969 208.976562 74.117188 209.933594 74.964844 210.867188 C 75.8125 211.800781 76.679688 212.714844 77.574219 213.605469 L 86.523438 222.558594 C 86.480469 222.808594 86.445312 223.054688 86.40625 223.304688 L 86.378906 223.507812 C 85.316406 230.8125 87.550781 237.949219 92.507812 243.09375 C 93.585938 244.21875 94.765625 245.226562 96.046875 246.117188 C 97.324219 247.003906 98.683594 247.757812 100.113281 248.375 C 101.546875 248.992188 103.023438 249.460938 104.550781 249.78125 C 106.074219 250.101562 107.617188 250.265625 109.175781 250.277344 L 109.414062 250.277344 C 109.953125 250.277344 110.507812 250.253906 111.109375 250.203125 C 110.382812 257.152344 112.632812 263.878906 117.363281 268.785156 C 118.441406 269.910156 119.621094 270.917969 120.902344 271.808594 C 122.183594 272.699219 123.539062 273.453125 124.972656 274.070312 C 126.402344 274.6875 127.882812 275.15625 129.40625 275.472656 C 130.933594 275.792969 132.476562 275.960938 134.035156 275.96875 L 134.269531 275.972656 C 134.808594 275.972656 135.363281 275.949219 135.96875 275.898438 C 135.238281 282.851562 137.492188 289.574219 142.222656 294.480469 C 143.300781 295.609375 144.476562 296.613281 145.757812 297.503906 C 147.039062 298.394531 148.394531 299.148438 149.824219 299.761719 C 151.257812 300.378906 152.734375 300.847656 154.261719 301.167969 C 155.785156 301.488281 157.328125 301.652344 158.886719 301.664062 L 159.125 301.667969 C 159.664062 301.667969 160.21875 301.640625 160.824219 301.59375 C 160.097656 308.542969 162.347656 315.269531 167.078125 320.175781 C 168.15625 321.300781 169.335938 322.308594 170.613281 323.199219 C 171.894531 324.089844 173.25 324.839844 174.683594 325.457031 C 176.113281 326.074219 177.59375 326.542969 179.121094 326.863281 C 180.644531 327.183594 182.1875 327.347656 183.746094 327.359375 L 183.980469 327.359375 C 185.011719 327.351562 186.035156 327.277344 187.054688 327.136719 C 190.144531 326.738281 193.035156 325.753906 195.726562 324.1875 C 197.5 323.164062 199.113281 321.929688 200.570312 320.488281 L 221.496094 299.558594 C 221.960938 299.09375 222.402344 298.617188 222.816406 298.125 C 223.570312 298.109375 224.324219 298.058594 225.074219 297.972656 C 225.824219 297.886719 226.566406 297.761719 227.304688 297.605469 C 228.042969 297.445312 228.769531 297.25 229.488281 297.023438 C 230.207031 296.792969 230.914062 296.53125 231.605469 296.234375 C 232.300781 295.9375 232.976562 295.605469 233.640625 295.242188 C 234.300781 294.878906 234.945312 294.488281 235.566406 294.0625 C 236.191406 293.636719 236.792969 293.183594 237.371094 292.699219 C 237.953125 292.21875 238.507812 291.707031 239.039062 291.171875 C 239.570312 290.636719 240.074219 290.074219 240.550781 289.488281 C 241.027344 288.90625 241.472656 288.296875 241.890625 287.671875 C 242.308594 287.042969 242.695312 286.394531 243.050781 285.730469 C 243.40625 285.066406 243.730469 284.382812 244.019531 283.6875 C 244.308594 282.992188 244.566406 282.28125 244.789062 281.558594 C 245.007812 280.839844 245.195312 280.109375 245.347656 279.371094 C 245.496094 278.628906 245.613281 277.886719 245.691406 277.136719 C 245.769531 276.382812 245.8125 275.632812 245.820312 274.878906 L 245.828125 274.664062 C 245.828125 274.058594 245.800781 273.433594 245.734375 272.75 C 246.417969 272.8125 247.039062 272.84375 247.640625 272.84375 L 247.84375 272.832031 C 248.601562 272.828125 249.359375 272.785156 250.117188 272.707031 C 250.871094 272.628906 251.621094 272.511719 252.367188 272.359375 C 253.109375 272.207031 253.847656 272.019531 254.570312 271.796875 C 255.296875 271.574219 256.011719 271.316406 256.710938 271.023438 C 257.414062 270.730469 258.097656 270.402344 258.765625 270.042969 C 259.4375 269.683594 260.085938 269.292969 260.71875 268.867188 C 261.347656 268.445312 261.957031 267.992188 262.542969 267.511719 C 263.128906 267.027344 263.691406 266.519531 264.230469 265.980469 C 264.765625 265.445312 265.277344 264.882812 265.757812 264.296875 C 266.242188 263.707031 266.695312 263.101562 267.117188 262.46875 C 267.542969 261.839844 267.933594 261.1875 268.292969 260.519531 C 268.652344 259.851562 268.980469 259.164062 269.273438 258.464844 C 269.566406 257.761719 269.824219 257.050781 270.046875 256.324219 C 270.269531 255.597656 270.460938 254.863281 270.609375 254.117188 C 270.761719 253.375 270.878906 252.625 270.957031 251.867188 C 271.035156 251.113281 271.078125 250.355469 271.085938 249.597656 C 271.089844 248.917969 271.0625 248.214844 270.996094 247.476562 C 271.679688 247.539062 272.304688 247.570312 272.914062 247.570312 L 273.117188 247.5625 C 275.699219 247.535156 278.210938 247.09375 280.648438 246.238281 C 281.765625 245.851562 282.851562 245.382812 283.898438 244.832031 C 284.949219 244.28125 285.949219 243.652344 286.898438 242.949219 C 287.851562 242.246094 288.746094 241.472656 289.582031 240.632812 C 290.414062 239.792969 291.183594 238.894531 291.878906 237.9375 C 292.578125 236.980469 293.199219 235.976562 293.742188 234.925781 C 294.289062 233.875 294.75 232.785156 295.128906 231.664062 C 295.507812 230.542969 295.800781 229.398438 296.007812 228.230469 C 296.210938 227.066406 296.328125 225.890625 296.351562 224.707031 L 307.449219 213.609375 C 308.339844 212.714844 309.207031 211.800781 310.054688 210.867188 C 310.898438 209.929688 311.722656 208.976562 312.519531 208 C 313.320312 207.023438 314.09375 206.03125 314.84375 205.015625 C 315.59375 204.003906 316.320312 202.972656 317.019531 201.921875 C 317.71875 200.871094 318.394531 199.808594 319.042969 198.726562 C 319.6875 197.644531 320.308594 196.546875 320.902344 195.433594 C 321.496094 194.320312 322.0625 193.195312 322.601562 192.054688 C 323.140625 190.914062 323.648438 189.761719 324.132812 188.59375 C 324.613281 187.429688 325.066406 186.253906 325.492188 185.066406 C 325.914062 183.878906 326.3125 182.679688 326.675781 181.472656 C 327.042969 180.265625 327.378906 179.050781 327.683594 177.828125 C 327.988281 176.605469 328.265625 175.375 328.511719 174.136719 C 328.757812 172.902344 328.972656 171.660156 329.15625 170.410156 C 329.34375 169.164062 329.496094 167.914062 329.621094 166.65625 C 329.742188 165.402344 329.835938 164.144531 329.898438 162.886719 C 329.960938 161.625 329.988281 160.367188 329.988281 159.105469 C 329.988281 157.84375 329.960938 156.582031 329.898438 155.324219 C 329.835938 154.0625 329.742188 152.804688 329.621094 151.550781 C 329.496094 150.296875 329.34375 149.046875 329.15625 147.796875 C 328.972656 146.550781 328.757812 145.308594 328.511719 144.070312 C 328.265625 142.835938 327.988281 141.605469 327.683594 140.378906 C 327.378906 139.15625 327.042969 137.941406 326.675781 136.734375 C 326.3125 135.527344 325.914062 134.332031 325.492188 133.144531 C 325.066406 131.957031 324.613281 130.777344 324.132812 129.613281 C 323.648438 128.449219 323.140625 127.296875 322.601562 126.15625 C 322.0625 125.015625 321.496094 123.886719 320.902344 122.777344 C 320.308594 121.664062 319.6875 120.566406 319.042969 119.484375 C 318.394531 118.402344 317.71875 117.335938 317.019531 116.285156 C 316.320312 115.238281 315.59375 114.207031 314.84375 113.191406 C 314.09375 112.179688 313.320312 111.183594 312.519531 110.207031 C 311.722656 109.234375 310.898438 108.277344 310.054688 107.34375 C 309.207031 106.40625 308.339844 105.492188 307.449219 104.601562 Z M 116.449219 237.984375 C 114.984375 238.914062 113.398438 239.523438 111.691406 239.820312 C 110.9375 239.953125 110.175781 240.023438 109.410156 240.027344 L 109.285156 240.027344 C 107.511719 240.011719 105.808594 239.652344 104.179688 238.949219 C 102.546875 238.25 101.117188 237.257812 99.890625 235.976562 C 98.792969 234.832031 97.945312 233.527344 97.34375 232.058594 C 96.371094 229.675781 96.105469 227.210938 96.546875 224.675781 C 96.796875 223.234375 97.257812 221.863281 97.929688 220.5625 C 98.601562 219.261719 99.453125 218.089844 100.484375 217.050781 L 120.992188 196.542969 C 121.605469 195.925781 122.273438 195.378906 122.996094 194.898438 C 123.714844 194.414062 124.476562 194.007812 125.277344 193.675781 C 126.082031 193.34375 126.90625 193.089844 127.757812 192.921875 C 128.609375 192.753906 129.46875 192.667969 130.335938 192.667969 C 131.203125 192.667969 132.0625 192.75 132.914062 192.921875 C 133.765625 193.089844 134.59375 193.339844 135.394531 193.671875 C 136.195312 194.003906 136.957031 194.410156 137.679688 194.894531 C 138.402344 195.375 139.070312 195.921875 139.683594 196.535156 C 140.296875 197.152344 140.84375 197.816406 141.328125 198.539062 C 141.808594 199.261719 142.214844 200.023438 142.546875 200.824219 C 142.878906 201.625 143.128906 202.453125 143.300781 203.304688 C 143.46875 204.15625 143.554688 205.015625 143.554688 205.882812 C 143.554688 206.75 143.46875 207.609375 143.296875 208.460938 C 143.128906 209.3125 142.878906 210.140625 142.546875 210.941406 C 142.214844 211.742188 141.804688 212.503906 141.324219 213.226562 C 140.839844 213.945312 140.292969 214.613281 139.679688 215.226562 L 139.277344 215.625 C 139.261719 215.644531 118.75 236.15625 118.75 236.15625 C 118.050781 236.851562 117.28125 237.460938 116.449219 237.984375 Z M 141.804688 263.34375 C 140.410156 264.308594 138.886719 264.980469 137.230469 265.359375 C 136.214844 265.59375 135.1875 265.714844 134.144531 265.71875 C 132.371094 265.703125 130.667969 265.34375 129.039062 264.640625 C 127.410156 263.9375 125.976562 262.949219 124.746094 261.671875 C 123.316406 260.179688 122.316406 258.445312 121.742188 256.457031 C 121.085938 254.210938 121.015625 251.941406 121.53125 249.660156 C 121.90625 247.996094 122.558594 246.453125 123.492188 245.03125 C 124.03125 244.203125 124.644531 243.441406 125.339844 242.746094 L 145.847656 222.234375 C 146.464844 221.625 147.132812 221.082031 147.851562 220.601562 C 148.574219 220.125 149.335938 219.722656 150.132812 219.390625 C 150.933594 219.0625 151.761719 218.816406 152.609375 218.648438 C 153.457031 218.480469 154.316406 218.398438 155.179688 218.398438 C 156.046875 218.402344 156.902344 218.488281 157.753906 218.65625 C 158.601562 218.828125 159.425781 219.078125 160.226562 219.410156 C 161.023438 219.742188 161.785156 220.148438 162.503906 220.628906 C 163.222656 221.109375 163.886719 221.65625 164.5 222.269531 C 165.113281 222.882812 165.660156 223.546875 166.140625 224.265625 C 166.621094 224.984375 167.027344 225.746094 167.359375 226.542969 C 167.691406 227.34375 167.941406 228.167969 168.113281 229.015625 C 168.285156 229.863281 168.371094 230.722656 168.371094 231.585938 C 168.371094 232.453125 168.289062 233.3125 168.125 234.160156 C 167.957031 235.007812 167.707031 235.835938 167.378906 236.632812 C 167.050781 237.433594 166.648438 238.195312 166.167969 238.917969 C 165.691406 239.636719 165.144531 240.304688 164.535156 240.921875 L 164.132812 241.324219 C 164.113281 241.339844 143.605469 261.851562 143.605469 261.851562 C 143.050781 262.402344 142.449219 262.898438 141.804688 263.34375 Z M 162.769531 290.898438 C 161.730469 291.191406 160.671875 291.355469 159.59375 291.390625 C 159.4375 291.398438 159.28125 291.414062 159.121094 291.414062 L 158.996094 291.414062 C 158.507812 291.40625 158.023438 291.375 157.539062 291.316406 C 156.027344 291.136719 154.589844 290.710938 153.226562 290.03125 C 151.863281 289.355469 150.65625 288.464844 149.601562 287.367188 C 147.890625 285.578125 146.800781 283.472656 146.328125 281.042969 C 145.902344 278.90625 145.984375 276.789062 146.566406 274.691406 C 147.238281 272.296875 148.449219 270.210938 150.195312 268.441406 L 170.726562 247.914062 C 171.339844 247.304688 172.007812 246.765625 172.730469 246.292969 C 173.453125 245.816406 174.210938 245.417969 175.011719 245.089844 C 175.8125 244.765625 176.636719 244.519531 177.484375 244.355469 C 178.332031 244.191406 179.1875 244.113281 180.050781 244.113281 C 180.914062 244.117188 181.769531 244.207031 182.617188 244.378906 C 183.464844 244.550781 184.285156 244.800781 185.082031 245.132812 C 185.878906 245.464844 186.636719 245.875 187.355469 246.355469 C 188.070312 246.835938 188.734375 247.382812 189.347656 247.992188 C 189.957031 248.605469 190.5 249.269531 190.980469 249.988281 C 191.460938 250.707031 191.867188 251.464844 192.199219 252.261719 C 192.527344 253.058594 192.777344 253.882812 192.949219 254.726562 C 193.117188 255.574219 193.207031 256.429688 193.207031 257.292969 C 193.210938 258.15625 193.128906 259.011719 192.960938 259.859375 C 192.796875 260.707031 192.550781 261.53125 192.222656 262.332031 C 191.894531 263.132812 191.496094 263.890625 191.019531 264.613281 C 190.542969 265.332031 190 266 189.394531 266.613281 L 168.464844 287.542969 C 166.859375 289.15625 164.960938 290.273438 162.769531 290.898438 Z M 217.492188 286.949219 C 216.851562 289 215.769531 290.789062 214.25 292.3125 L 211.921875 294.636719 L 193.320312 313.238281 C 192.078125 314.472656 190.648438 315.425781 189.03125 316.097656 C 187.414062 316.765625 185.730469 317.105469 183.980469 317.109375 L 183.855469 317.109375 C 182.078125 317.097656 180.375 316.738281 178.746094 316.039062 C 177.117188 315.335938 175.6875 314.34375 174.457031 313.0625 C 171.023438 309.496094 170.097656 304.332031 171.605469 299.734375 C 172.308594 297.59375 173.457031 295.726562 175.050781 294.132812 L 192.511719 276.675781 L 195.5625 273.625 C 196.082031 273.105469 196.640625 272.628906 197.238281 272.203125 C 197.835938 271.777344 198.464844 271.402344 199.125 271.082031 C 199.785156 270.761719 200.46875 270.496094 201.171875 270.289062 C 201.878906 270.082031 202.59375 269.933594 203.324219 269.84375 C 204.054688 269.757812 204.785156 269.730469 205.519531 269.765625 C 206.253906 269.796875 206.980469 269.894531 207.695312 270.046875 C 208.414062 270.203125 209.113281 270.417969 209.796875 270.691406 C 210.480469 270.960938 211.132812 271.289062 211.761719 271.667969 C 212.390625 272.050781 212.980469 272.480469 213.539062 272.960938 C 214.09375 273.441406 214.605469 273.964844 215.074219 274.53125 C 215.542969 275.097656 215.960938 275.695312 216.328125 276.332031 C 216.699219 276.96875 217.011719 277.628906 217.269531 278.316406 C 217.527344 279.003906 217.726562 279.710938 217.867188 280.429688 C 218.007812 281.152344 218.085938 281.878906 218.105469 282.613281 C 218.125 283.347656 218.082031 284.078125 217.980469 284.804688 C 217.878906 285.535156 217.714844 286.246094 217.492188 286.949219 Z M 282.257812 233.457031 C 281.640625 234.070312 280.972656 234.613281 280.25 235.09375 C 279.53125 235.574219 278.769531 235.976562 277.964844 236.308594 C 277.164062 236.636719 276.339844 236.886719 275.488281 237.054688 C 274.640625 237.222656 273.78125 237.308594 272.914062 237.308594 C 272.046875 237.308594 271.1875 237.222656 270.339844 237.054688 C 269.488281 236.886719 268.664062 236.636719 267.863281 236.308594 C 267.058594 235.976562 266.296875 235.574219 265.578125 235.09375 C 264.855469 234.613281 264.1875 234.070312 263.570312 233.457031 L 229.472656 199.359375 C 229.257812 199.144531 229.019531 198.949219 228.765625 198.78125 C 228.511719 198.609375 228.242188 198.46875 227.960938 198.351562 C 227.679688 198.234375 227.386719 198.144531 227.085938 198.085938 C 226.785156 198.027344 226.484375 197.996094 226.179688 197.996094 C 225.871094 197.996094 225.570312 198.027344 225.269531 198.085938 C 224.96875 198.144531 224.675781 198.234375 224.394531 198.351562 C 224.113281 198.46875 223.84375 198.609375 223.589844 198.78125 C 223.335938 198.949219 223.101562 199.144531 222.882812 199.359375 C 222.667969 199.578125 222.472656 199.8125 222.304688 200.066406 C 222.132812 200.320312 221.992188 200.589844 221.875 200.871094 C 221.757812 201.15625 221.667969 201.445312 221.609375 201.746094 C 221.546875 202.046875 221.519531 202.347656 221.519531 202.65625 C 221.519531 202.960938 221.546875 203.265625 221.609375 203.5625 C 221.667969 203.863281 221.757812 204.15625 221.875 204.4375 C 221.992188 204.71875 222.132812 204.988281 222.304688 205.242188 C 222.472656 205.496094 222.667969 205.734375 222.882812 205.949219 L 256.980469 240.046875 C 258.691406 241.757812 259.839844 243.785156 260.429688 246.128906 C 260.707031 247.199219 260.847656 248.285156 260.851562 249.390625 C 260.851562 250.257812 260.765625 251.117188 260.597656 251.96875 C 260.425781 252.816406 260.175781 253.644531 259.84375 254.445312 C 259.511719 255.246094 259.105469 256.007812 258.625 256.730469 C 258.140625 257.453125 257.59375 258.121094 256.980469 258.734375 C 256.367188 259.347656 255.699219 259.894531 254.980469 260.375 C 254.257812 260.859375 253.496094 261.265625 252.695312 261.597656 C 251.890625 261.929688 251.066406 262.179688 250.214844 262.347656 C 249.363281 262.515625 248.503906 262.601562 247.636719 262.601562 C 246.53125 262.597656 245.445312 262.457031 244.375 262.183594 C 242.03125 261.59375 240.003906 260.441406 238.292969 258.730469 L 204.195312 224.632812 C 203.980469 224.417969 203.746094 224.226562 203.492188 224.054688 C 203.238281 223.886719 202.96875 223.742188 202.6875 223.625 C 202.402344 223.511719 202.113281 223.421875 201.8125 223.363281 C 201.511719 223.304688 201.210938 223.273438 200.902344 223.273438 C 200.597656 223.273438 200.296875 223.304688 199.996094 223.363281 C 199.695312 223.421875 199.40625 223.511719 199.121094 223.628906 C 198.839844 223.746094 198.570312 223.890625 198.316406 224.058594 C 198.0625 224.230469 197.828125 224.421875 197.613281 224.636719 C 197.394531 224.855469 197.203125 225.089844 197.035156 225.34375 C 196.863281 225.597656 196.71875 225.867188 196.601562 226.148438 C 196.484375 226.429688 196.398438 226.722656 196.335938 227.023438 C 196.277344 227.320312 196.246094 227.625 196.246094 227.929688 C 196.246094 228.234375 196.277344 228.539062 196.335938 228.839844 C 196.394531 229.136719 196.484375 229.429688 196.601562 229.710938 C 196.71875 229.996094 196.859375 230.261719 197.03125 230.515625 C 197.199219 230.773438 197.390625 231.007812 197.609375 231.222656 L 231.707031 265.320312 C 233.417969 267.027344 234.566406 269.054688 235.15625 271.402344 C 235.433594 272.472656 235.574219 273.558594 235.578125 274.664062 C 235.578125 275.328125 235.527344 275.992188 235.429688 276.652344 C 235.328125 277.308594 235.179688 277.957031 234.980469 278.59375 C 234.78125 279.230469 234.539062 279.847656 234.246094 280.445312 C 233.957031 281.042969 233.621094 281.617188 233.242188 282.167969 C 232.863281 282.714844 232.445312 283.230469 231.988281 283.714844 C 231.53125 284.203125 231.039062 284.648438 230.515625 285.058594 C 229.992188 285.46875 229.4375 285.839844 228.859375 286.167969 C 228.277344 286.492188 227.675781 286.773438 227.054688 287.011719 C 227.117188 286.65625 227.160156 286.296875 227.207031 285.941406 C 227.496094 283.765625 227.46875 281.597656 227.125 279.433594 C 227.015625 278.722656 226.871094 278.019531 226.695312 277.324219 C 226.515625 276.628906 226.304688 275.945312 226.0625 275.269531 C 225.820312 274.59375 225.542969 273.929688 225.238281 273.28125 C 224.929688 272.632812 224.59375 272 224.222656 271.382812 C 223.855469 270.769531 223.460938 270.171875 223.035156 269.59375 C 222.609375 269.015625 222.15625 268.457031 221.679688 267.921875 C 221.199219 267.386719 220.695312 266.875 220.167969 266.390625 C 219.640625 265.902344 219.09375 265.441406 218.519531 265.007812 C 217.949219 264.574219 217.355469 264.171875 216.746094 263.792969 C 216.136719 263.417969 215.507812 263.070312 214.863281 262.753906 C 214.21875 262.4375 213.5625 262.152344 212.890625 261.898438 C 212.21875 261.644531 211.535156 261.421875 210.84375 261.234375 C 210.148438 261.046875 209.449219 260.890625 208.742188 260.773438 C 208.035156 260.652344 207.324219 260.5625 206.605469 260.511719 C 205.890625 260.460938 205.175781 260.441406 204.457031 260.457031 C 203.738281 260.472656 203.023438 260.523438 202.3125 260.609375 C 202.328125 260.484375 202.351562 260.359375 202.367188 260.230469 C 202.503906 259.25 202.574219 258.261719 202.582031 257.273438 C 202.582031 256.480469 202.542969 255.6875 202.460938 254.902344 C 202.375 254.113281 202.25 253.332031 202.085938 252.558594 C 201.921875 251.78125 201.714844 251.019531 201.46875 250.265625 C 201.222656 249.511719 200.9375 248.773438 200.613281 248.050781 C 200.289062 247.328125 199.925781 246.625 199.527344 245.9375 C 199.128906 245.253906 198.695312 244.59375 198.226562 243.953125 C 197.757812 243.3125 197.257812 242.703125 196.722656 242.117188 C 196.191406 241.53125 195.628906 240.972656 195.035156 240.445312 C 194.441406 239.921875 193.824219 239.425781 193.179688 238.964844 C 192.535156 238.503906 191.871094 238.078125 191.179688 237.6875 C 190.492188 237.296875 189.78125 236.941406 189.054688 236.628906 C 188.328125 236.3125 187.585938 236.035156 186.832031 235.796875 C 186.074219 235.558594 185.308594 235.363281 184.53125 235.207031 C 183.753906 235.050781 182.972656 234.933594 182.183594 234.859375 C 181.394531 234.785156 180.605469 234.753906 179.8125 234.765625 C 179.019531 234.773438 178.230469 234.824219 177.441406 234.917969 C 177.460938 234.796875 177.480469 234.675781 177.496094 234.550781 C 177.601562 233.757812 177.667969 232.960938 177.691406 232.164062 C 177.714844 231.363281 177.691406 230.5625 177.628906 229.765625 C 177.566406 228.96875 177.460938 228.175781 177.316406 227.390625 C 177.167969 226.605469 176.976562 225.828125 176.75 225.0625 C 176.519531 224.296875 176.246094 223.542969 175.9375 222.804688 C 175.625 222.070312 175.277344 221.351562 174.890625 220.648438 C 174.503906 219.949219 174.078125 219.273438 173.621094 218.617188 C 173.160156 217.960938 172.667969 217.332031 172.140625 216.730469 C 171.613281 216.128906 171.058594 215.554688 170.46875 215.015625 C 169.882812 214.472656 169.265625 213.960938 168.625 213.484375 C 167.980469 213.007812 167.316406 212.566406 166.628906 212.160156 C 165.9375 211.753906 165.230469 211.382812 164.5 211.054688 C 163.773438 210.722656 163.027344 210.433594 162.269531 210.183594 C 161.507812 209.929688 160.738281 209.722656 159.953125 209.550781 C 159.171875 209.382812 158.382812 209.257812 157.589844 209.171875 C 156.792969 209.085938 155.996094 209.046875 155.195312 209.046875 C 154.324219 209.050781 153.453125 209.105469 152.589844 209.210938 C 152.605469 209.09375 152.625 208.976562 152.640625 208.859375 C 152.847656 207.296875 152.894531 205.726562 152.773438 204.15625 C 152.65625 202.582031 152.371094 201.039062 151.929688 199.527344 C 151.484375 198.015625 150.886719 196.5625 150.140625 195.175781 C 149.390625 193.789062 148.503906 192.496094 147.484375 191.292969 C 147.09375 190.835938 146.703125 190.382812 146.269531 189.953125 C 145.839844 189.519531 145.386719 189.128906 144.929688 188.742188 C 143.316406 187.367188 141.542969 186.242188 139.609375 185.371094 C 137.675781 184.5 135.65625 183.917969 133.558594 183.617188 C 132.050781 183.402344 130.535156 183.335938 129.011719 183.425781 C 128.460938 183.457031 127.910156 183.511719 127.363281 183.582031 C 124.910156 183.898438 122.574219 184.601562 120.355469 185.695312 C 118.136719 186.785156 116.152344 188.203125 114.40625 189.953125 C 114.40625 189.953125 93.894531 210.460938 93.894531 210.460938 C 93.070312 211.300781 92.308594 212.195312 91.617188 213.152344 L 84.820312 206.359375 C 84.046875 205.585938 83.292969 204.792969 82.558594 203.984375 C 81.824219 203.171875 81.109375 202.34375 80.414062 201.5 C 79.71875 200.65625 79.046875 199.792969 78.394531 198.914062 C 77.742188 198.035156 77.113281 197.140625 76.503906 196.234375 C 75.894531 195.324219 75.308594 194.398438 74.746094 193.460938 C 74.183594 192.523438 73.644531 191.570312 73.128906 190.605469 C 72.613281 189.640625 72.121094 188.664062 71.652344 187.675781 C 71.183594 186.6875 70.738281 185.6875 70.320312 184.675781 C 69.902344 183.667969 69.507812 182.648438 69.140625 181.617188 C 68.769531 180.585938 68.425781 179.546875 68.109375 178.5 C 67.789062 177.453125 67.5 176.402344 67.234375 175.339844 C 66.964844 174.277344 66.726562 173.210938 66.511719 172.136719 C 66.296875 171.066406 66.113281 169.988281 65.949219 168.90625 C 65.789062 167.824219 65.65625 166.738281 65.546875 165.648438 C 65.441406 164.558594 65.359375 163.46875 65.304688 162.375 C 65.25 161.285156 65.226562 160.191406 65.222656 159.097656 C 65.222656 158.003906 65.25 156.910156 65.304688 155.816406 C 65.359375 154.722656 65.4375 153.632812 65.542969 152.542969 C 65.652344 151.457031 65.785156 150.371094 65.945312 149.289062 C 66.105469 148.207031 66.292969 147.128906 66.507812 146.054688 C 66.71875 144.980469 66.957031 143.914062 67.222656 142.851562 C 67.488281 141.792969 67.78125 140.738281 68.097656 139.691406 C 68.417969 138.644531 68.757812 137.605469 69.128906 136.574219 C 69.496094 135.542969 69.890625 134.523438 70.308594 133.511719 C 70.726562 132.503906 71.167969 131.503906 71.636719 130.511719 C 72.105469 129.523438 72.597656 128.546875 73.113281 127.582031 C 73.628906 126.617188 74.167969 125.664062 74.730469 124.726562 C 75.292969 123.789062 75.878906 122.863281 76.484375 121.957031 C 77.09375 121.046875 77.722656 120.152344 78.375 119.273438 C 79.027344 118.394531 79.699219 117.53125 80.390625 116.6875 C 81.085938 115.839844 81.800781 115.011719 82.535156 114.199219 C 83.269531 113.390625 84.023438 112.597656 84.796875 111.824219 C 85.570312 111.050781 86.363281 110.296875 87.175781 109.5625 C 87.984375 108.828125 88.8125 108.113281 89.660156 107.417969 C 90.503906 106.726562 91.367188 106.050781 92.246094 105.402344 C 93.125 104.75 94.019531 104.117188 94.929688 103.511719 C 95.839844 102.902344 96.761719 102.316406 97.699219 101.757812 C 98.640625 101.195312 99.589844 100.65625 100.554688 100.140625 C 101.519531 99.625 102.496094 99.132812 103.488281 98.664062 C 104.476562 98.195312 105.476562 97.753906 106.488281 97.335938 C 107.496094 96.914062 108.519531 96.523438 109.546875 96.152344 C 110.578125 95.785156 111.617188 95.441406 112.664062 95.125 C 113.710938 94.808594 114.765625 94.515625 115.828125 94.25 C 116.886719 93.984375 117.953125 93.746094 119.027344 93.53125 C 120.101562 93.320312 121.179688 93.132812 122.261719 92.972656 C 123.34375 92.8125 124.429688 92.679688 125.515625 92.570312 C 126.605469 92.464844 127.695312 92.382812 128.789062 92.332031 C 129.882812 92.277344 130.976562 92.25 132.070312 92.25 C 133.164062 92.25 134.257812 92.277344 135.351562 92.332031 C 136.441406 92.386719 137.535156 92.464844 138.621094 92.574219 C 139.710938 92.679688 140.796875 92.816406 141.878906 92.976562 C 142.960938 93.136719 144.039062 93.324219 145.113281 93.539062 C 146.183594 93.753906 147.25 93.992188 148.3125 94.257812 C 149.375 94.523438 150.429688 94.816406 151.476562 95.132812 C 152.523438 95.453125 153.558594 95.796875 154.589844 96.164062 C 155.621094 96.535156 156.640625 96.929688 157.652344 97.347656 C 158.660156 97.765625 159.660156 98.210938 160.648438 98.675781 C 161.640625 99.144531 162.617188 99.636719 163.582031 100.152344 C 164.546875 100.671875 165.496094 101.210938 166.433594 101.773438 C 167.371094 102.335938 168.296875 102.921875 169.207031 103.527344 C 170.117188 104.136719 171.007812 104.765625 171.886719 105.417969 C 172.765625 106.070312 173.628906 106.746094 174.472656 107.4375 C 175.320312 108.132812 176.148438 108.847656 176.957031 109.582031 C 177.765625 110.320312 178.558594 111.074219 179.332031 111.847656 L 185.921875 118.433594 L 145.363281 158.992188 C 144.921875 159.433594 144.53125 159.914062 144.183594 160.429688 C 143.835938 160.945312 143.542969 161.488281 143.300781 162.058594 C 143.058594 162.628906 142.871094 163.21875 142.738281 163.828125 C 142.609375 164.433594 142.535156 165.050781 142.523438 165.671875 C 142.511719 166.292969 142.554688 166.910156 142.660156 167.519531 C 142.765625 168.132812 142.925781 168.730469 143.144531 169.3125 C 143.363281 169.894531 143.632812 170.449219 143.957031 170.980469 C 144.28125 171.507812 144.652344 172.003906 145.070312 172.464844 C 145.175781 172.578125 145.25 172.710938 145.363281 172.820312 C 146.179688 173.636719 147.039062 174.414062 147.929688 175.144531 C 148.824219 175.875 149.753906 176.5625 150.714844 177.203125 C 151.675781 177.84375 152.664062 178.4375 153.683594 178.980469 C 154.703125 179.523438 155.746094 180.019531 156.8125 180.460938 C 157.882812 180.902344 158.96875 181.289062 160.074219 181.625 C 161.179688 181.957031 162.296875 182.238281 163.433594 182.464844 C 164.566406 182.6875 165.707031 182.859375 166.855469 182.972656 C 168.003906 183.085938 169.15625 183.140625 170.3125 183.140625 C 171.46875 183.140625 172.621094 183.085938 173.769531 182.972656 C 174.921875 182.859375 176.0625 182.6875 177.195312 182.464844 C 178.328125 182.238281 179.449219 181.957031 180.554688 181.625 C 181.660156 181.289062 182.746094 180.902344 183.8125 180.460938 C 184.878906 180.019531 185.925781 179.523438 186.941406 178.980469 C 187.960938 178.4375 188.953125 177.84375 189.914062 177.203125 C 190.875 176.5625 191.800781 175.875 192.695312 175.144531 C 193.589844 174.414062 194.445312 173.636719 195.261719 172.820312 L 217.785156 150.300781 L 248.160156 180.671875 L 256.5 189.015625 L 282.257812 214.773438 C 282.871094 215.386719 283.414062 216.054688 283.894531 216.777344 C 284.375 217.5 284.777344 218.261719 285.109375 219.0625 C 285.4375 219.863281 285.6875 220.691406 285.855469 221.539062 C 286.023438 222.390625 286.109375 223.25 286.109375 224.113281 C 286.109375 224.980469 286.023438 225.839844 285.855469 226.691406 C 285.6875 227.539062 285.4375 228.367188 285.109375 229.167969 C 284.777344 229.96875 284.375 230.730469 283.894531 231.453125 C 283.414062 232.175781 282.871094 232.84375 282.257812 233.457031 Z M 300.199219 206.359375 L 292.882812 213.675781 C 291.816406 211.640625 290.472656 209.808594 288.847656 208.183594 L 222.910156 142.246094 C 222.742188 141.402344 222.371094 140.664062 221.792969 140.027344 C 221.214844 139.390625 220.515625 138.945312 219.691406 138.695312 C 218.871094 138.445312 218.042969 138.425781 217.207031 138.632812 C 216.375 138.84375 215.652344 139.25 215.046875 139.859375 L 214.488281 140.414062 L 211.195312 143.710938 L 188.675781 166.234375 C 188.074219 166.832031 187.441406 167.402344 186.785156 167.941406 C 186.128906 168.480469 185.445312 168.984375 184.738281 169.457031 C 184.03125 169.929688 183.300781 170.363281 182.550781 170.765625 C 181.800781 171.164062 181.035156 171.527344 180.246094 171.851562 C 179.460938 172.175781 178.664062 172.464844 177.847656 172.710938 C 177.035156 172.957031 176.210938 173.164062 175.378906 173.328125 C 174.542969 173.492188 173.703125 173.617188 172.859375 173.699219 C 172.011719 173.785156 171.164062 173.824219 170.3125 173.824219 C 169.464844 173.824219 168.617188 173.785156 167.769531 173.699219 C 166.921875 173.617188 166.082031 173.492188 165.25 173.328125 C 164.414062 173.164062 163.59375 172.957031 162.777344 172.710938 C 161.964844 172.464844 161.164062 172.175781 160.378906 171.851562 C 159.59375 171.527344 158.824219 171.164062 158.074219 170.765625 C 157.324219 170.363281 156.597656 169.929688 155.890625 169.457031 C 155.183594 168.984375 154.5 168.480469 153.84375 167.941406 C 153.183594 167.402344 152.554688 166.832031 151.953125 166.234375 C 151.863281 166.140625 151.820312 166.035156 151.820312 165.90625 C 151.820312 165.78125 151.863281 165.671875 151.953125 165.582031 L 195.804688 121.730469 L 199.097656 118.433594 L 205.6875 111.847656 C 205.695312 111.835938 211.925781 105.605469 211.925781 105.605469 C 235.027344 82.511719 278.34375 89.996094 300.199219 111.847656 C 326.253906 137.902344 326.253906 180.300781 300.199219 206.359375 Z M 300.199219 206.359375 " fill-opacity="1" fill-rule="nonzero"/></g></svg>