<svg xmlns="http://www.w3.org/2000/svg" xmlns:xlink="http://www.w3.org/1999/xlink" width="500" zoomAndPan="magnify" viewBox="0 0 375 374.999991" height="500" preserveAspectRatio="xMidYMid meet" version="1.0"><defs><clipPath id="49a47099f3"><path d="M 32.773438 136 L 342.523438 136 L 342.523438 239.722656 L 32.773438 239.722656 Z M 32.773438 136 " clip-rule="nonzero"/></clipPath></defs><g clip-path="url(#49a47099f3)"><path fill="#ffffff" d="M 288.855469 136.300781 C 287.378906 137.011719 286.871094 139.582031 286.992188 145.777344 C 287.179688 155.480469 289.261719 162.378906 293.832031 168.457031 C 294.433594 169.253906 295.074219 170.003906 296.921875 172.070312 C 298.597656 173.949219 298.554688 173.699219 298.574219 181.292969 L 298.589844 187.273438 L 298.3125 186.464844 C 296.113281 179.949219 291.386719 175.300781 285.402344 173.765625 C 282.363281 172.988281 278.355469 173.058594 275.621094 173.941406 C 268.023438 176.398438 266.90625 183.90625 273.964844 185.078125 C 274.28125 185.128906 275.871094 185.210938 277.5 185.257812 C 282.113281 185.390625 284.191406 185.703125 287.359375 186.730469 C 291.042969 187.925781 295.539062 190.25 296.882812 191.648438 C 297.71875 192.519531 297.761719 193.234375 297.363281 199.179688 C 296.925781 205.648438 296.910156 206.195312 296.910156 213.0625 C 296.910156 219.8125 296.941406 220.847656 297.308594 225.6875 C 297.558594 228.980469 297.554688 229.191406 297.195312 229.4375 C 296.65625 229.804688 295.996094 230.566406 295.417969 231.496094 C 292.929688 235.480469 292.855469 235.527344 288.863281 235.503906 C 287.550781 235.496094 279.75 235.472656 271.535156 235.453125 C 262.90625 235.433594 255.191406 235.375 253.277344 235.3125 C 251.453125 235.257812 248.667969 235.167969 247.089844 235.121094 C 237.199219 234.808594 235.480469 234.5625 234.8125 233.363281 C 234.324219 232.488281 234.300781 231.878906 234.460938 224.09375 C 234.578125 218.402344 234.503906 212.5 234.210938 204.136719 C 234.035156 199.070312 234.054688 198.648438 234.65625 196.152344 C 235.886719 191.046875 235.597656 186.890625 233.753906 183.105469 L 233.25 182.070312 L 233.453125 181.671875 C 233.746094 181.09375 234.027344 179.945312 234.53125 177.253906 C 235.835938 170.335938 235.921875 170.242188 241.339844 169.785156 C 249.382812 169.109375 255.476562 167.699219 256.914062 166.1875 C 258.574219 164.4375 256.476562 162.507812 251.375 161.089844 C 245.230469 159.382812 240.570312 159.984375 237.609375 162.875 C 237.023438 163.449219 236.917969 163.515625 236.871094 163.367188 C 236.6875 162.800781 236.605469 162.625 236.355469 162.246094 C 235.714844 161.269531 234.722656 161.378906 234.1875 162.480469 C 234.089844 162.679688 234.007812 162.773438 234.007812 162.6875 C 233.988281 161.960938 232.851562 159.488281 231.859375 158.003906 C 227.21875 151.058594 214.84375 146.796875 212.589844 151.371094 C 211.320312 153.945312 213.429688 159.167969 217.316406 163.089844 C 220.09375 165.890625 222.859375 167.679688 228.34375 170.226562 C 231.242188 171.570312 231.792969 172.109375 231.792969 173.585938 C 231.792969 174.601562 231.304688 176.917969 230.820312 178.207031 L 230.628906 178.714844 L 229.820312 177.628906 C 228.953125 176.460938 227.996094 175.457031 227.152344 174.8125 C 222.25 171.089844 214.425781 171.941406 212.820312 176.371094 C 212.699219 176.699219 212.460938 177.128906 212.289062 177.332031 C 212.117188 177.53125 211.765625 178.132812 211.507812 178.667969 C 208.84375 184.152344 210.867188 189.015625 217.433594 192.90625 C 220.140625 194.511719 222.726562 195.507812 227.859375 196.929688 C 228.585938 197.128906 229.34375 197.382812 229.539062 197.488281 L 229.890625 197.683594 L 229.882812 198.253906 C 229.878906 198.570312 229.804688 199.363281 229.71875 200.019531 C 229.363281 202.699219 229.425781 208.761719 229.90625 218.058594 C 230.460938 228.746094 230.1875 232.652344 228.792969 233.910156 C 227.964844 234.660156 227.148438 234.726562 220.875 234.589844 C 209.757812 234.34375 203.324219 234.75 190.8125 236.488281 C 183.972656 237.441406 182.535156 237.5625 182.015625 237.242188 C 181.921875 237.183594 181.878906 236.683594 181.820312 235.0625 C 181.78125 233.902344 181.703125 232.335938 181.648438 231.578125 C 181.492188 229.46875 181.722656 223.09375 182.066406 219.824219 C 182.511719 215.613281 183.214844 213.589844 185.597656 209.613281 C 189.449219 203.179688 189.777344 199.492188 187.109375 192.503906 C 186.058594 189.75 184.402344 187.394531 182.316406 185.691406 L 181.6875 185.175781 L 181.980469 184.199219 C 184.097656 177.21875 182.644531 170.445312 177.285156 162.3125 C 175.128906 159.046875 174.113281 159.339844 172.371094 163.738281 C 171.125 166.882812 170.5 169.464844 170.375 172.007812 L 170.320312 173.125 L 169.902344 172.867188 C 164.378906 169.46875 154.785156 170.625 154.785156 174.6875 C 154.785156 177.371094 159.089844 180.136719 166.941406 182.503906 C 167.785156 182.757812 168.042969 182.867188 167.914062 182.917969 C 165.191406 183.921875 163.699219 185.402344 163.5625 187.238281 C 163.429688 189 164.351562 190.546875 166.851562 192.769531 C 169.167969 194.828125 169.472656 195.359375 170.882812 199.75 C 172.042969 203.367188 173.191406 205.269531 175.824219 207.933594 C 177.6875 209.8125 177.65625 209.644531 177.074219 214.960938 C 176.925781 216.300781 176.605469 219.542969 176.359375 222.167969 C 175.453125 231.804688 175.050781 234.1875 174.09375 235.574219 C 173.574219 236.332031 172.527344 236.40625 169.769531 235.878906 C 157.199219 233.496094 141.394531 232.734375 132.117188 234.066406 C 131.101562 234.214844 130.089844 234.320312 129.863281 234.308594 C 129.214844 234.265625 129.199219 234.167969 129.289062 230.65625 C 129.523438 221.628906 129.265625 218.304688 128.113281 215.617188 L 127.808594 214.898438 L 127.988281 214.554688 C 128.871094 212.859375 128.804688 208.847656 127.855469 206.109375 C 126.121094 201.121094 122.164062 197.992188 116.503906 197.136719 C 113.199219 196.636719 108.101562 197.316406 108.101562 198.257812 C 108.101562 198.300781 107.972656 198.339844 107.816406 198.34375 C 106.371094 198.351562 105.984375 199.449219 106.84375 201.09375 L 107.351562 202.070312 L 107.363281 204.121094 C 107.394531 208.941406 108.722656 211.589844 112.300781 213.964844 C 114.253906 215.261719 115.996094 215.949219 120.65625 217.261719 C 123.601562 218.085938 123.496094 217.921875 123.585938 221.8125 C 123.625 223.417969 123.71875 225.996094 123.792969 227.539062 C 123.996094 231.710938 123.960938 233.355469 123.660156 233.65625 C 123.574219 233.742188 123.359375 233.695312 121.050781 233.097656 C 117.730469 232.234375 114.363281 232.269531 108.191406 233.230469 C 98.214844 234.78125 95.726562 234.867188 85.957031 233.972656 C 78.199219 233.261719 74.273438 233.269531 71.527344 234.007812 L 71.070312 234.128906 L 71.496094 232.921875 C 71.734375 232.257812 72.164062 231.046875 72.460938 230.234375 C 73.804688 226.5 74.042969 224.472656 73.375 222.390625 C 73.160156 221.71875 73.097656 221.34375 73.066406 220.53125 C 72.804688 214.183594 63.191406 209.339844 55.363281 211.617188 C 53.246094 212.230469 51.707031 213.554688 51.472656 214.960938 C 51.4375 215.179688 51.332031 215.46875 51.238281 215.601562 C 50.117188 217.183594 50.65625 218.886719 52.269531 218.847656 L 52.886719 218.832031 L 53.730469 219.660156 C 57.058594 222.957031 60.625 224.597656 64.449219 224.597656 C 65.488281 224.597656 66.292969 224.648438 66.835938 224.742188 C 67.398438 224.839844 68.003906 224.871094 68.78125 224.847656 L 69.90625 224.8125 L 69.90625 225.1875 C 69.90625 226.835938 68.460938 231.339844 67.425781 232.910156 C 65.957031 235.140625 65.101562 235.226562 60.890625 233.554688 C 53.523438 230.632812 50.261719 230.636719 41.328125 233.578125 C 37.789062 234.746094 35.808594 235.285156 34.171875 235.519531 C 33.625 235.597656 33.082031 235.679688 32.972656 235.703125 C 32.785156 235.742188 32.773438 235.785156 32.773438 236.492188 L 32.773438 237.242188 L 33.007812 237.242188 C 34.449219 237.242188 37.796875 236.425781 41.535156 235.164062 C 50.3125 232.207031 53.246094 232.1875 60.386719 235.042969 C 64.550781 236.707031 66.054688 236.679688 67.832031 234.898438 C 69.5625 233.164062 71.46875 227.933594 71.394531 225.128906 L 71.367188 224.203125 L 71.71875 223.917969 L 72.074219 223.628906 L 72.148438 223.960938 C 72.320312 224.722656 72.101562 226.316406 71.621094 227.828125 C 71.378906 228.589844 69.691406 233.382812 69.332031 234.328125 C 68.804688 235.714844 69.308594 236.355469 70.578125 235.910156 C 72.519531 235.238281 74.414062 234.992188 77.6875 234.996094 C 80.316406 235 80.867188 235.035156 86.398438 235.5625 C 94.582031 236.34375 99.082031 236.234375 106.464844 235.070312 C 111.472656 234.28125 112.863281 234.105469 114.953125 234.007812 C 116.972656 233.914062 119.105469 234.171875 121.320312 234.785156 C 122.800781 235.191406 122.867188 235.203125 123.554688 235.207031 C 125.421875 235.214844 125.644531 234.152344 125.296875 226.964844 C 125.222656 225.445312 125.132812 222.890625 125.09375 221.285156 C 124.984375 216.921875 124.894531 216.8125 120.3125 215.53125 C 116.257812 214.394531 114.625 213.714844 112.757812 212.386719 L 111.980469 211.835938 L 112.277344 211.679688 C 112.714844 211.457031 113.746094 210.324219 113.988281 209.804688 C 114.601562 208.484375 114.222656 207.242188 112.878906 206.167969 C 111.953125 205.425781 111.90625 205.285156 111.90625 203.414062 C 111.90625 201.699219 111.808594 201.089844 111.421875 200.402344 L 111.214844 200.027344 L 111.449219 200.066406 C 111.578125 200.089844 112.160156 200.171875 112.742188 200.246094 C 119.410156 201.121094 121.867188 203.273438 124.234375 210.320312 C 125.09375 212.878906 125.289062 213.371094 126.101562 215.050781 C 127.738281 218.429688 128.078125 221.265625 127.789062 229.019531 C 127.601562 234.015625 127.652344 234.589844 128.335938 235.328125 C 128.902344 235.9375 129.796875 236.019531 131.929688 235.667969 C 140.214844 234.292969 156.265625 234.957031 168.089844 237.164062 C 172.78125 238.042969 173.960938 237.976562 175.097656 236.769531 C 176.167969 235.636719 176.75 233.464844 177.269531 228.667969 L 177.378906 227.648438 L 177.488281 229.949219 C 177.683594 234.074219 177.894531 235.441406 178.398438 235.863281 C 179.054688 236.417969 179.710938 236.015625 180.03125 234.855469 C 180.113281 234.570312 180.144531 234.519531 180.152344 234.679688 C 180.382812 239.503906 180.359375 239.496094 190.855469 238.035156 C 203.800781 236.238281 209.808594 235.851562 220.890625 236.09375 C 227.6875 236.238281 228.378906 236.167969 229.640625 235.199219 C 231.710938 233.605469 232.042969 230.316406 231.402344 217.746094 C 230.914062 208.113281 230.871094 202.894531 231.253906 200.019531 C 231.582031 197.558594 231.472656 196.917969 230.625 196.355469 C 230.398438 196.207031 230.195312 196 230.164062 195.894531 C 230.078125 195.578125 229.398438 195.054688 227.074219 193.507812 C 223.808594 191.339844 221.824219 189.707031 219.238281 187.058594 C 216.527344 184.277344 215.761719 182.90625 214.863281 179.195312 C 214.640625 178.273438 214.398438 177.40625 214.320312 177.269531 C 214.125 176.921875 214.457031 176.261719 215.167969 175.582031 C 217.601562 173.261719 223.097656 173.542969 226.355469 176.152344 C 227.789062 177.300781 229.160156 179.066406 229.078125 179.660156 C 228.945312 180.652344 230.558594 182.695312 231.609375 182.863281 C 232.375 182.984375 233.558594 186.390625 233.832031 189.277344 C 234.007812 191.148438 233.808594 193.058594 233.15625 195.777344 C 232.550781 198.289062 232.523438 198.820312 232.707031 204.292969 C 233.003906 213.175781 233.050781 216.40625 232.972656 221.726562 C 232.859375 229.292969 232.875 232.316406 233.019531 232.953125 C 233.367188 234.480469 234.339844 235.441406 235.960938 235.863281 C 238.667969 236.558594 253.074219 236.976562 274.582031 236.980469 C 281.074219 236.980469 287.582031 236.988281 289.039062 236.996094 L 291.691406 237.011719 L 292.414062 236.773438 C 293.765625 236.320312 294.796875 235.421875 295.757812 233.855469 C 297.097656 231.671875 297.453125 231.1875 298.070312 230.695312 C 299.074219 229.894531 299.136719 229.519531 298.855469 226.011719 C 298.160156 217.359375 298.160156 210.085938 298.855469 199.535156 C 299.40625 191.160156 299.359375 191.019531 295.21875 188.566406 C 289.890625 185.410156 284.683594 183.929688 278.441406 183.792969 C 273.246094 183.679688 271.40625 183.128906 270.957031 181.554688 C 269.957031 178.039062 274.699219 174.730469 280.730469 174.738281 C 287.671875 174.742188 293.28125 178.574219 296.203125 185.300781 L 296.429688 185.832031 L 295.929688 185.253906 C 291.453125 180.148438 286.691406 176.957031 282.179688 176.042969 C 277.828125 175.164062 272.019531 176.71875 272.019531 178.765625 C 272.019531 179.957031 272.875 180.339844 278.519531 181.675781 C 288.542969 184.046875 293.300781 185.941406 297.484375 189.234375 C 298.890625 190.34375 299.238281 190.4375 299.789062 189.855469 L 300.121094 189.507812 L 300.085938 182.203125 C 300.035156 172.566406 300.257812 173.492188 297.171875 170.046875 C 292.683594 165.039062 290.332031 160.136719 289.175781 153.382812 C 288.09375 147.085938 288.285156 138.355469 289.515625 137.695312 C 290.710938 137.054688 296.949219 142.417969 300.105469 146.800781 C 304.683594 153.15625 305.375 158.710938 302.320312 164.566406 C 300.550781 167.960938 300.5 168.121094 300.972656 168.59375 C 301.75 169.371094 302.523438 168.570312 304.421875 165.007812 C 307.121094 159.941406 307.769531 158.894531 309.183594 157.289062 C 312.125 153.949219 315.359375 152.660156 324.316406 151.265625 C 327.960938 150.695312 329.398438 150.4375 331.257812 150.015625 C 333.765625 149.445312 334.273438 149.339844 334.320312 149.386719 C 334.558594 149.625 332.726562 154.199219 330.941406 157.804688 C 327.035156 165.707031 323.1875 169.445312 317.425781 170.9375 C 314.527344 171.6875 312.132812 171.703125 308.003906 171.003906 C 304.488281 170.410156 303.273438 170.703125 302.433594 172.355469 C 301.769531 173.65625 301.71875 174.394531 301.765625 182.214844 C 301.808594 189.828125 301.796875 189.730469 302.746094 190.269531 C 303.5625 190.730469 304.152344 190.585938 308.179688 188.925781 C 314.894531 186.160156 319.679688 185.527344 324.542969 186.757812 C 328.285156 187.703125 331.792969 189.980469 332.894531 192.179688 C 333.722656 193.835938 333.160156 194.539062 330.785156 194.808594 C 329.011719 195.007812 327.144531 194.734375 319.347656 193.132812 C 310.40625 191.296875 306.046875 191.464844 303.554688 193.746094 C 301.457031 195.671875 301.109375 198.285156 301.683594 207.757812 C 302.003906 213.019531 302.066406 218.492188 301.867188 223.140625 C 301.582031 229.703125 302.007812 230.746094 305.882812 232.953125 C 308.605469 234.507812 309.15625 234.953125 310.503906 236.734375 C 312.132812 238.878906 312.933594 239.070312 318.835938 238.699219 C 325.367188 238.289062 337.941406 238.4375 341.886719 238.96875 L 342.21875 239.011719 L 342.21875 237.453125 L 340.960938 237.34375 C 335.941406 236.910156 324.316406 236.835938 318.480469 237.199219 C 313.421875 237.515625 312.949219 237.410156 311.628906 235.675781 C 310.203125 233.800781 309.632812 233.339844 306.398438 231.460938 C 303.375 229.703125 303.113281 229.003906 303.363281 223.367188 C 303.601562 217.972656 303.542969 213.632812 303.128906 206.652344 C 302.570312 197.097656 303.160156 194.863281 306.53125 193.832031 C 309.140625 193.03125 312.53125 193.292969 320.25 194.890625 C 326.75 196.238281 328.851562 196.515625 331.003906 196.3125 C 338.492188 195.609375 334.113281 187.621094 324.949219 185.257812 C 319.660156 183.894531 314.511719 184.628906 306.679688 187.867188 C 305.027344 188.550781 303.835938 188.96875 303.546875 188.96875 C 303.339844 188.96875 303.304688 188.082031 303.269531 182.125 C 303.210938 171.65625 303.164062 171.761719 307.648438 172.507812 C 311.597656 173.167969 314.433594 173.195312 317.109375 172.609375 C 324.628906 170.957031 329.460938 165.730469 334.4375 153.863281 C 336.882812 148.035156 336.445312 147.222656 331.476562 148.371094 C 329.109375 148.921875 327.5 149.21875 323.699219 149.804688 C 313.46875 151.386719 309.890625 153.195312 306.226562 158.644531 L 305.660156 159.484375 L 305.660156 157.714844 C 305.65625 152.363281 303.148438 147.230469 297.925781 141.902344 C 293.488281 137.371094 290.492188 135.519531 288.855469 136.300781 M 218.449219 151.21875 C 220.3125 151.597656 222.179688 152.265625 223.917969 153.179688 C 230.101562 156.425781 233.117188 161.230469 233.117188 167.832031 C 233.121094 169.851562 234.753906 169.945312 234.800781 167.925781 C 234.808594 167.652344 234.820312 167.636719 234.914062 167.785156 C 235.59375 168.878906 236.714844 168.125 236.976562 166.398438 C 237.085938 165.671875 238.277344 164.15625 239.375 163.347656 C 241.882812 161.496094 245.222656 161.195312 250.136719 162.371094 C 252.867188 163.023438 255.929688 164.394531 255.929688 164.960938 C 255.929688 165.960938 248.449219 167.660156 241.519531 168.234375 C 235.011719 168.773438 234.425781 169.34375 233.121094 176.414062 C 232.382812 180.40625 232.296875 180.699219 231.945312 180.261719 L 231.703125 179.957031 L 231.960938 179.445312 C 233.050781 177.285156 233.640625 173.179688 233.046875 171.867188 C 232.472656 170.597656 232.003906 170.28125 227.285156 167.992188 C 219.898438 164.40625 215.574219 160.179688 214.0625 155.058594 C 213.058594 151.664062 214.484375 150.414062 218.449219 151.21875 M 176.390625 163.8125 C 181.179688 171.546875 182.328125 176.738281 180.652344 183.082031 C 180.488281 183.699219 180.34375 184.21875 180.324219 184.234375 C 180.304688 184.253906 179.894531 184.074219 179.40625 183.839844 C 178.488281 183.402344 176.925781 182.847656 176.3125 182.742188 L 175.957031 182.683594 L 175.988281 182.296875 C 176.140625 180.414062 174.667969 177.246094 172.625 175.050781 L 171.894531 174.261719 L 171.902344 172.839844 C 171.921875 169.84375 173.054688 165.570312 174.6875 162.335938 L 174.964844 161.785156 L 175.265625 162.132812 C 175.433594 162.328125 175.941406 163.082031 176.390625 163.8125 M 235.550781 164.785156 C 235.605469 165.378906 235.59375 165.4375 235.285156 166.070312 L 234.957031 166.734375 L 235.011719 166.246094 C 235.136719 165.140625 235.359375 163.945312 235.425781 164.050781 C 235.464844 164.109375 235.519531 164.441406 235.550781 164.785156 M 164.066406 172.535156 C 166.160156 172.785156 168.105469 173.503906 169.71875 174.617188 L 170.46875 175.132812 L 170.617188 176.015625 C 170.960938 178.058594 172.007812 180.929688 172.824219 182.078125 L 173.011719 182.339844 L 172.511719 182.339844 C 171.6875 182.339844 166.054688 180.667969 163.234375 179.585938 C 158.878906 177.917969 155.949219 175.71875 156.371094 174.4375 C 156.851562 172.988281 160.441406 172.101562 164.066406 172.535156 M 281.867188 177.5625 C 285.648438 178.367188 289.398438 180.65625 293.019531 184.367188 L 293.550781 184.910156 L 292.621094 184.476562 C 289.234375 182.902344 285.414062 181.710938 278.519531 180.082031 C 275.179688 179.296875 273.789062 178.890625 273.789062 178.699219 C 273.789062 178.386719 276.367188 177.550781 277.945312 177.355469 C 278.703125 177.257812 281.015625 177.382812 281.867188 177.5625 M 173.261719 178.519531 C 173.992188 179.828125 174.785156 182.289062 174.148438 181.265625 C 173.644531 180.457031 172.542969 177.839844 172.558594 177.480469 C 172.5625 177.378906 172.914062 177.898438 173.261719 178.519531 M 212.988281 180.765625 C 213.355469 181.792969 214.085938 183.171875 214.808594 184.195312 C 215.101562 184.609375 215.621094 185.351562 215.964844 185.847656 C 217.597656 188.207031 220.246094 190.777344 222.816406 192.503906 C 223.828125 193.179688 225.796875 194.667969 225.71875 194.691406 C 225.59375 194.734375 222.640625 193.707031 221.5625 193.246094 C 214.574219 190.261719 211.125 186.136719 212.035156 181.851562 C 212.167969 181.207031 212.601562 179.828125 212.652344 179.878906 C 212.671875 179.894531 212.820312 180.292969 212.988281 180.765625 M 172.347656 184.113281 C 173.382812 184.476562 174.15625 184.898438 175.386719 185.78125 C 175.945312 186.183594 177.257812 187.082031 178.300781 187.773438 C 181.953125 190.1875 183.367188 191.5625 184.410156 193.699219 C 185.90625 196.773438 185.453125 199.234375 182.679688 203.070312 C 180.71875 205.78125 179.722656 207.421875 179.179688 208.839844 C 178.921875 209.511719 178.929688 209.511719 178.660156 208.882812 C 178.484375 208.46875 178.210938 208.140625 177.15625 207.09375 C 174.214844 204.171875 173.535156 202.949219 171.765625 197.433594 C 171 195.042969 170.347656 193.980469 168.679688 192.386719 C 166.074219 189.894531 165.644531 189.402344 165.269531 188.441406 C 164.472656 186.40625 166.550781 184.566406 170.316406 183.980469 C 171.425781 183.808594 171.484375 183.8125 172.347656 184.113281 M 176.984375 184.554688 C 177.441406 184.707031 178.261719 185.039062 178.800781 185.296875 L 179.789062 185.769531 L 179.820312 186.34375 C 179.839844 186.710938 179.816406 186.898438 179.761719 186.867188 C 179.292969 186.589844 176.21875 184.5 176.011719 184.316406 C 175.914062 184.230469 176.222656 184.304688 176.984375 184.554688 M 109.925781 200.921875 C 110.25 201.4375 110.402344 202.160156 110.394531 203.15625 L 110.386719 204.042969 L 110.222656 203.246094 C 110.070312 202.492188 109.707031 201.34375 109.390625 200.613281 L 109.246094 200.277344 L 109.480469 200.429688 C 109.609375 200.515625 109.808594 200.734375 109.925781 200.921875 M 187.183594 201.546875 C 186.863281 203.875 186.105469 205.746094 184.226562 208.863281 C 183.050781 210.8125 182.125 212.644531 181.707031 213.855469 C 181.542969 214.34375 181.402344 214.703125 181.402344 214.652344 C 181.402344 214.605469 181.273438 213.53125 181.121094 212.265625 C 180.734375 209.105469 180.59375 209.492188 182.976562 207.117188 C 185.300781 204.800781 186.191406 203.601562 186.933594 201.789062 C 187.230469 201.066406 187.25 201.046875 187.183594 201.546875 M 124.105469 202.628906 C 125.832031 204.625 126.921875 207.394531 127.0625 210.15625 L 127.109375 211.027344 L 126.980469 210.144531 C 126.484375 206.707031 125.34375 204.144531 123.332031 201.960938 L 122.648438 201.214844 L 123.203125 201.71875 C 123.507812 202 123.914062 202.40625 124.105469 202.628906 M 108.960938 205.921875 C 108.941406 206.054688 108.925781 205.945312 108.925781 205.679688 C 108.925781 205.410156 108.941406 205.300781 108.960938 205.4375 C 108.980469 205.570312 108.980469 205.789062 108.960938 205.921875 M 111.71875 207.1875 C 113.042969 208.386719 112.988281 209.382812 111.554688 210.292969 C 110.707031 210.828125 110.605469 210.539062 110.558594 207.488281 L 110.535156 205.800781 L 110.761719 206.164062 C 110.890625 206.363281 111.320312 206.824219 111.71875 207.1875 M 62.53125 212.878906 C 65.953125 213.589844 68.824219 215.296875 70.34375 217.527344 L 70.730469 218.101562 L 70.34375 217.742188 C 67.410156 215.027344 63.917969 213.628906 59.207031 213.277344 C 57.957031 213.1875 57.507812 213.195312 55.761719 213.332031 C 54.976562 213.394531 55.222656 213.257812 56.394531 212.976562 C 58.339844 212.507812 60.570312 212.472656 62.53125 212.878906 M 179.792969 214.035156 C 180.238281 217.988281 180.109375 222.457031 179.355469 229.042969 C 179.246094 230.003906 179.128906 230.789062 179.097656 230.789062 C 178.925781 230.789062 178.796875 223.378906 178.914062 220.320312 C 179.046875 216.839844 179.441406 212.867188 179.632812 213.082031 C 179.667969 213.117188 179.738281 213.546875 179.792969 214.035156 M 60.242188 214.921875 C 65.195312 215.570312 69.019531 217.753906 71.050781 221.09375 C 71.453125 221.753906 71.457031 221.871094 71.082031 222.363281 C 70.71875 222.835938 70.371094 222.992188 69.953125 222.863281 C 69.484375 222.722656 68.140625 222.722656 66.992188 222.867188 L 66.0625 222.980469 L 65.179688 222.679688 C 64 222.28125 61.6875 221.144531 59.519531 219.898438 C 56.289062 218.042969 55.664062 217.742188 54.363281 217.410156 L 53.613281 217.214844 L 53.367188 216.730469 C 52.949219 215.90625 52.949219 215.910156 53.527344 215.605469 C 54.992188 214.835938 57.582031 214.574219 60.242188 214.921875 M 58.191406 220.933594 C 59.019531 221.410156 60.011719 221.972656 60.402344 222.183594 C 61.222656 222.621094 61.230469 222.65625 60.441406 222.335938 C 59.316406 221.878906 57.441406 220.792969 56.777344 220.21875 C 56.429688 219.917969 56.441406 219.921875 58.191406 220.933594 " fill-opacity="1" fill-rule="evenodd"/></g></svg>