<svg xmlns="http://www.w3.org/2000/svg" xmlns:xlink="http://www.w3.org/1999/xlink" width="500" zoomAndPan="magnify" viewBox="0 0 375 374.999991" height="500" preserveAspectRatio="xMidYMid meet" version="1.0"><defs><clipPath id="afd9882d8a"><path d="M 187.5 0 C 83.945312 0 0 83.945312 0 187.5 C 0 291.054688 83.945312 375 187.5 375 C 291.054688 375 375 291.054688 375 187.5 C 375 83.945312 291.054688 0 187.5 0 Z M 187.5 0 " clip-rule="nonzero"/></clipPath><clipPath id="10bd135e43"><path d="M 88 63.484375 L 282 63.484375 L 282 173 L 88 173 Z M 88 63.484375 " clip-rule="nonzero"/></clipPath><clipPath id="2edb5a30ba"><path d="M 134 228 L 236 228 L 236 297.484375 L 134 297.484375 Z M 134 228 " clip-rule="nonzero"/></clipPath><clipPath id="72047817ee"><path d="M 217 228 L 316 228 L 316 297.484375 L 217 297.484375 Z M 217 228 " clip-rule="nonzero"/></clipPath><clipPath id="30e76b9dfe"><path d="M 54 228 L 153 228 L 153 297.484375 L 54 297.484375 Z M 54 228 " clip-rule="nonzero"/></clipPath></defs><g clip-path="url(#afd9882d8a)"><path stroke-linecap="butt" transform="matrix(0.75, 0, 0, 0.75, 0.0000045, 0)" fill="none" stroke-linejoin="miter" d="M 249.999994 0 C 111.927078 0 -0.000006 111.927084 -0.000006 250 C -0.000006 388.072917 111.927078 500.000001 249.999994 500.000001 C 388.072911 500.000001 499.999995 388.072917 499.999995 250 C 499.999995 111.927084 388.072911 0 249.999994 0 Z M 249.999994 0 " stroke="#ffffff" stroke-width="24" stroke-opacity="1" stroke-miterlimit="4"/></g><path fill="#ffffff" d="M 215.464844 104.371094 C 207.375 98.539062 196.039062 100.269531 188.996094 107.316406 L 185.140625 111.167969 L 180.546875 106.542969 C 171.960938 97.960938 157.488281 98.8125 150.089844 109.101562 C 144.253906 117.191406 145.988281 128.527344 153.03125 135.570312 L 181.949219 164.488281 C 183.710938 166.25 186.574219 166.25 188.332031 164.488281 L 218.023438 134.800781 C 226.632812 126.246094 225.753906 111.800781 215.464844 104.371094 Z M 215.464844 104.371094 " fill-opacity="1" fill-rule="nonzero"/><g clip-path="url(#10bd135e43)"><path fill="#ffffff" d="M 96.765625 171.863281 C 99.65625 171.203125 101.554688 168.480469 101.332031 165.535156 C 101.195312 163.636719 101.140625 161.710938 101.140625 159.757812 C 101.140625 113.476562 138.863281 75.753906 185.140625 75.753906 C 231.558594 75.753906 269.28125 113.476562 269.28125 159.757812 C 269.28125 161.710938 269.226562 163.636719 269.089844 165.535156 C 268.867188 168.480469 270.765625 171.230469 273.65625 171.863281 C 273.738281 171.890625 273.792969 171.890625 273.875 171.917969 C 277.507812 172.773438 281.03125 170.210938 281.304688 166.472656 C 281.46875 164.242188 281.554688 162.011719 281.554688 159.730469 C 281.554688 106.710938 238.328125 63.484375 185.167969 63.484375 C 132.121094 63.484375 88.894531 106.710938 88.894531 159.730469 C 88.894531 161.984375 88.980469 164.242188 89.144531 166.472656 C 89.417969 170.183594 92.941406 172.742188 96.574219 171.917969 C 96.601562 171.890625 96.683594 171.890625 96.765625 171.863281 Z M 96.765625 171.863281 " fill-opacity="1" fill-rule="nonzero"/></g><path fill="#ffffff" d="M 164.945312 203.671875 C 164.945312 214.867188 174.027344 223.921875 185.195312 223.921875 C 196.394531 223.921875 205.449219 214.867188 205.449219 203.671875 C 205.449219 192.472656 196.367188 183.417969 185.195312 183.417969 C 174 183.417969 164.945312 192.472656 164.945312 203.671875 Z M 164.945312 203.671875 " fill-opacity="1" fill-rule="nonzero"/><g clip-path="url(#2edb5a30ba)"><path fill="#ffffff" d="M 235.410156 228.734375 C 233.042969 231.183594 231.089844 233.992188 229.632812 237.101562 L 225.039062 246.757812 L 204.429688 246.757812 L 204.429688 292.128906 C 204.429688 295.183594 201.953125 297.660156 198.898438 297.660156 L 171.496094 297.660156 C 168.441406 297.660156 165.964844 295.183594 165.964844 292.128906 L 165.964844 246.730469 L 145.355469 246.730469 L 140.761719 237.074219 C 139.277344 233.964844 137.320312 231.15625 134.984375 228.707031 L 235.410156 228.707031 Z M 235.410156 228.734375 " fill-opacity="1" fill-rule="nonzero"/></g><g clip-path="url(#72047817ee)"><path fill="#ffffff" d="M 315.011719 282.609375 L 295.28125 241.253906 C 291.625 233.605469 283.890625 228.707031 275.417969 228.707031 L 258.25 228.707031 C 249.773438 228.707031 242.042969 233.578125 238.382812 241.253906 L 218.65625 282.609375 C 216.507812 287.09375 218.40625 292.460938 222.917969 294.605469 C 227.40625 296.75 232.769531 294.851562 234.914062 290.339844 L 247.628906 263.707031 L 247.628906 292.074219 C 247.628906 295.128906 250.105469 297.605469 253.15625 297.605469 L 280.5625 297.605469 C 283.617188 297.605469 286.09375 295.128906 286.09375 292.074219 L 286.09375 263.734375 L 298.804688 290.367188 C 300.34375 293.613281 303.5625 295.484375 306.921875 295.484375 C 308.214844 295.484375 309.535156 295.210938 310.800781 294.605469 C 315.257812 292.460938 317.15625 287.09375 315.011719 282.609375 Z M 315.011719 282.609375 " fill-opacity="1" fill-rule="nonzero"/></g><path fill="#ffffff" d="M 266.832031 183.417969 C 255.632812 183.417969 246.582031 192.472656 246.582031 203.671875 C 246.582031 214.867188 255.660156 223.921875 266.832031 223.921875 C 278.03125 223.921875 287.082031 214.867188 287.082031 203.671875 C 287.082031 192.472656 278.03125 183.417969 266.832031 183.417969 Z M 266.832031 183.417969 " fill-opacity="1" fill-rule="nonzero"/><g clip-path="url(#30e76b9dfe)"><path fill="#ffffff" d="M 132.011719 241.253906 C 128.351562 233.605469 120.621094 228.707031 112.144531 228.707031 L 94.976562 228.707031 C 86.503906 228.707031 78.769531 233.578125 75.113281 241.253906 L 55.382812 282.609375 C 53.238281 287.09375 55.136719 292.460938 59.648438 294.605469 C 64.160156 296.75 69.5 294.824219 71.644531 290.339844 L 84.355469 263.707031 L 84.355469 292.074219 C 84.355469 295.128906 86.832031 297.605469 89.886719 297.605469 L 117.238281 297.605469 C 120.289062 297.605469 122.765625 295.128906 122.765625 292.074219 L 122.765625 263.734375 L 135.476562 290.367188 C 137.019531 293.613281 140.238281 295.484375 143.621094 295.484375 C 144.914062 295.484375 146.238281 295.210938 147.503906 294.605469 C 151.988281 292.460938 153.886719 287.09375 151.765625 282.609375 Z M 132.011719 241.253906 " fill-opacity="1" fill-rule="nonzero"/></g><path fill="#ffffff" d="M 103.5625 223.921875 C 114.761719 223.921875 123.8125 214.867188 123.8125 203.671875 C 123.8125 192.472656 114.734375 183.417969 103.5625 183.417969 C 92.363281 183.417969 83.3125 192.472656 83.3125 203.671875 C 83.3125 214.839844 92.363281 223.921875 103.5625 223.921875 Z M 103.5625 223.921875 " fill-opacity="1" fill-rule="nonzero"/></svg>